<svg xmlns="http://www.w3.org/2000/svg" viewBox="0 0 100 100">
  <rect fill="#000000" width="100" height="100"/>

  <!-- Pixelated game controller using 3x3 blocks with 1px spacing -->
  <g fill="#ffffff">
    <!-- Top row -->
    <rect x="20" y="20" width="3" height="3"/>
    <rect x="24" y="20" width="3" height="3"/>
    <rect x="28" y="20" width="3" height="3"/>
    <rect x="32" y="20" width="3" height="3"/>
    <rect x="36" y="20" width="3" height="3"/>
    <rect x="40" y="20" width="3" height="3"/>
    <rect x="44" y="20" width="3" height="3"/>
    <rect x="48" y="20" width="3" height="3"/>
    <rect x="52" y="20" width="3" height="3"/>
    <rect x="56" y="20" width="3" height="3"/>
    <rect x="60" y="20" width="3" height="3"/>
    <rect x="64" y="20" width="3" height="3"/>
    <rect x="68" y="20" width="3" height="3"/>
    <rect x="72" y="20" width="3" height="3"/>
    <rect x="76" y="20" width="3" height="3"/>

    <!-- Second row -->
    <rect x="16" y="24" width="3" height="3"/>
    <rect x="20" y="24" width="3" height="3"/>
    <rect x="76" y="24" width="3" height="3"/>
    <rect x="80" y="24" width="3" height="3"/>

    <!-- Third row -->
    <rect x="12" y="28" width="3" height="3"/>
    <rect x="16" y="28" width="3" height="3"/>
    <rect x="80" y="28" width="3" height="3"/>
    <rect x="84" y="28" width="3" height="3"/>

    <!-- Fourth row - main body -->
    <rect x="12" y="32" width="3" height="3"/>
    <rect x="16" y="32" width="3" height="3"/>
    <rect x="80" y="32" width="3" height="3"/>
    <rect x="84" y="32" width="3" height="3"/>

    <!-- Fifth row -->
    <rect x="12" y="36" width="3" height="3"/>
    <rect x="16" y="36" width="3" height="3"/>
    <rect x="28" y="36" width="3" height="3"/>
    <rect x="68" y="36" width="3" height="3"/>
    <rect x="80" y="36" width="3" height="3"/>
    <rect x="84" y="36" width="3" height="3"/>

    <!-- Sixth row - D-pad and buttons -->
    <rect x="12" y="40" width="3" height="3"/>
    <rect x="16" y="40" width="3" height="3"/>
    <rect x="24" y="40" width="3" height="3"/>
    <rect x="28" y="40" width="3" height="3"/>
    <rect x="32" y="40" width="3" height="3"/>
    <rect x="64" y="40" width="3" height="3"/>
    <rect x="68" y="40" width="3" height="3"/>
    <rect x="72" y="40" width="3" height="3"/>
    <rect x="80" y="40" width="3" height="3"/>
    <rect x="84" y="40" width="3" height="3"/>

    <!-- Seventh row -->
    <rect x="12" y="44" width="3" height="3"/>
    <rect x="16" y="44" width="3" height="3"/>
    <rect x="28" y="44" width="3" height="3"/>
    <rect x="68" y="44" width="3" height="3"/>
    <rect x="80" y="44" width="3" height="3"/>
    <rect x="84" y="44" width="3" height="3"/>

    <!-- Eighth row -->
    <rect x="12" y="48" width="3" height="3"/>
    <rect x="16" y="48" width="3" height="3"/>
    <rect x="80" y="48" width="3" height="3"/>
    <rect x="84" y="48" width="3" height="3"/>

    <!-- Ninth row -->
    <rect x="16" y="52" width="3" height="3"/>
    <rect x="20" y="52" width="3" height="3"/>
    <rect x="76" y="52" width="3" height="3"/>
    <rect x="80" y="52" width="3" height="3"/>

    <!-- Bottom grips -->
    <rect x="20" y="56" width="3" height="3"/>
    <rect x="24" y="56" width="3" height="3"/>
    <rect x="72" y="56" width="3" height="3"/>
    <rect x="76" y="56" width="3" height="3"/>

    <rect x="24" y="60" width="3" height="3"/>
    <rect x="28" y="60" width="3" height="3"/>
    <rect x="68" y="60" width="3" height="3"/>
    <rect x="72" y="60" width="3" height="3"/>

    <rect x="28" y="64" width="3" height="3"/>
    <rect x="68" y="64" width="3" height="3"/>
  </g>
</svg>
